<svg width="1435" height="1164" viewBox="0 0 1435 1164" fill="none" xmlns="http://www.w3.org/2000/svg">
<g opacity="0.1" clip-path="url(#clip0)">
<path opacity="0.1" d="M1400.22 791.419C1398.94 792.41 1397.76 793.375 1396.5 794.312C1391.85 797.785 1386.98 800.92 1381.93 803.696C1355.47 818.432 1322.86 825.629 1291.09 830.519C1219.84 841.492 1147.1 843.624 1074.67 845.716C878.965 851.393 682.782 857.056 487.551 843.977C410.415 838.817 331.582 830.179 261.684 803.696C251.665 799.912 241.843 795.738 232.218 791.174C212.741 781.926 194.036 770.667 178.48 757.222C163.863 744.619 152.009 730.141 144.926 713.681C130.154 679.403 137.971 640.901 154.838 607.301C161.843 593.709 169.743 580.652 178.48 568.229C191.503 549.311 205.863 530.935 218.963 512.031C265.579 444.832 295.997 359.815 252.968 290.891C240.6 271.09 222.73 253.707 212.651 233.036C199.795 206.594 200.785 177.232 204.873 148.712C205.405 145.09 205.966 141.505 206.557 137.956C213.538 95.6645 226.677 50.1003 267.186 23.6988C309.264 -3.73477 369.019 -2.34951 421.24 7.40165C502.451 22.721 577.363 54.6092 653.072 83.4009C728.781 112.193 807.987 138.499 891.191 141.324C964.663 143.823 1050.36 125.122 1099.12 76.5153C1146.49 29.3078 1235.51 25.7088 1299.68 54.2289C1343.72 73.7991 1376.58 109.055 1390.44 148.712C1393.25 156.674 1395.27 164.92 1396.47 173.321C1397.58 180.998 1397.94 188.775 1397.55 196.531C1397.36 200.36 1396.98 204.15 1396.47 207.898C1385.75 286.152 1308.57 347.877 1261.66 417.779C1238.74 451.921 1222.55 492.936 1238.32 529.754C1262.36 585.857 1345.96 605.807 1396.44 647.555C1405.95 655.154 1414.31 664.218 1421.26 674.446C1445.75 711.603 1436.71 761.785 1400.22 791.419Z" fill="#1BD4C2"/>
<path d="M331.672 441.192C331.672 441.192 272.534 330.48 183.417 298.592C146.018 285.201 113.377 260.022 91.0591 225.607C80.4932 209.268 71.37 191.939 63.8043 173.837" stroke="#535461" stroke-width="2" stroke-miterlimit="10"/>
<path d="M7.76503 153.343C17.9213 163.705 65.2057 174.57 65.2057 174.57C65.2057 174.57 53.6352 124.972 43.4533 114.556C38.5589 109.66 32.0353 106.998 25.2961 107.148C18.557 107.298 12.1454 110.248 7.45058 115.357C2.75581 120.467 0.156169 127.325 0.215028 134.446C0.273888 141.566 2.98651 148.375 7.76503 153.397V153.343Z" fill="#1BD4C2"/>
<path d="M34.5184 243.1C48.39 246.006 93.656 227.903 93.656 227.903C93.656 227.903 58.3663 192.918 44.4818 190.012C37.883 188.784 31.0915 190.336 25.563 194.335C20.0344 198.334 16.2087 204.462 14.9056 211.405C13.6026 218.348 14.9259 225.554 18.5921 231.478C22.2582 237.403 27.9754 241.575 34.5184 243.1V243.1Z" fill="#1BD4C2"/>
<path d="M131.903 340.258C145.273 335.369 175.613 295.618 175.613 295.618C175.613 295.618 128.457 284.223 115.1 289.112C111.822 290.188 108.783 291.948 106.162 294.288C103.541 296.629 101.391 299.501 99.8413 302.736C98.2912 305.971 97.3722 309.502 97.1386 313.119C96.9051 316.736 97.3618 320.365 98.4816 323.793C99.6015 327.22 101.362 330.374 103.658 333.069C105.954 335.763 108.739 337.943 111.848 339.479C114.956 341.015 118.326 341.875 121.755 342.009C125.185 342.143 128.605 341.548 131.813 340.258H131.903Z" fill="#1BD4C2"/>
<path d="M221.252 396.198C235.214 393.754 271.519 360.005 271.519 360.005C271.519 360.005 226.87 340.353 212.908 342.784C206.203 343.953 200.212 347.888 196.254 353.723C192.295 359.558 190.692 366.815 191.799 373.898C192.905 380.982 196.63 387.31 202.153 391.492C207.677 395.674 214.547 397.367 221.252 396.198V396.198Z" fill="#1BD4C2"/>
<path d="M133.047 189.143C133.047 204.082 107.463 247.446 107.463 247.446C107.463 247.446 81.8285 204.109 81.8156 189.17C81.7392 185.565 82.3452 181.981 83.5982 178.627C84.8511 175.273 86.7257 172.218 89.1119 169.64C91.4981 167.062 94.3478 165.014 97.4937 163.615C100.64 162.217 104.018 161.497 107.431 161.497C110.844 161.497 114.223 162.217 117.369 163.615C120.515 165.014 123.364 167.062 125.751 169.64C128.137 172.218 130.011 175.273 131.264 178.627C132.517 181.981 133.123 185.565 133.047 189.17V189.143Z" fill="#1BD4C2"/>
<path d="M236.769 256.056C232.539 270.316 195.836 303.59 195.836 303.59C195.836 303.59 183.648 254.087 187.826 239.759C190.072 233.199 194.628 227.808 200.545 224.71C206.462 221.613 213.283 221.049 219.584 223.135C225.885 225.222 231.181 229.797 234.366 235.908C237.551 242.019 238.38 249.193 236.679 255.934L236.769 256.056Z" fill="#1BD4C2"/>
<path d="M329.127 335.573C327.25 350.39 296.395 389.734 296.395 389.734C296.395 389.734 276.468 343.178 278.397 328.361C279.395 321.333 282.97 315.002 288.35 310.735C293.729 306.467 300.481 304.606 307.149 305.553C313.816 306.5 319.863 310.179 323.985 315.795C328.107 321.412 329.972 328.516 329.178 335.573H329.127Z" fill="#1BD4C2"/>
<path opacity="0.25" d="M7.76503 153.343C17.9213 163.705 65.2057 174.57 65.2057 174.57C65.2057 174.57 53.6352 124.972 43.4533 114.556C38.5589 109.66 32.0353 106.998 25.2961 107.148C18.557 107.298 12.1454 110.248 7.45058 115.357C2.75581 120.467 0.156169 127.325 0.215028 134.446C0.273888 141.566 2.98651 148.375 7.76503 153.397V153.343Z" fill="black"/>
<path opacity="0.25" d="M34.5184 243.1C48.39 246.006 93.656 227.903 93.656 227.903C93.656 227.903 58.3663 192.918 44.4818 190.012C37.883 188.784 31.0915 190.336 25.563 194.335C20.0344 198.334 16.2087 204.462 14.9056 211.405C13.6026 218.348 14.9259 225.554 18.5921 231.478C22.2582 237.403 27.9754 241.575 34.5184 243.1V243.1Z" fill="black"/>
<path opacity="0.25" d="M131.903 340.258C145.273 335.369 175.613 295.618 175.613 295.618C175.613 295.618 128.457 284.223 115.1 289.112C111.822 290.188 108.783 291.948 106.162 294.288C103.541 296.629 101.391 299.501 99.8413 302.736C98.2912 305.971 97.3722 309.502 97.1386 313.119C96.9051 316.736 97.3618 320.365 98.4816 323.793C99.6015 327.22 101.362 330.374 103.658 333.069C105.954 335.763 108.739 337.943 111.848 339.479C114.956 341.015 118.326 341.875 121.755 342.009C125.185 342.143 128.605 341.548 131.813 340.258H131.903Z" fill="black"/>
<path opacity="0.25" d="M221.252 396.198C235.214 393.754 271.519 360.005 271.519 360.005C271.519 360.005 226.87 340.353 212.908 342.784C206.203 343.953 200.212 347.888 196.254 353.723C192.295 359.558 190.692 366.815 191.799 373.898C192.905 380.982 196.63 387.31 202.153 391.492C207.677 395.674 214.547 397.367 221.252 396.198V396.198Z" fill="black"/>
<path opacity="0.25" d="M133.047 189.143C133.047 204.082 107.463 247.446 107.463 247.446C107.463 247.446 81.8285 204.109 81.8156 189.17C81.7392 185.565 82.3452 181.981 83.5982 178.627C84.8511 175.273 86.7257 172.218 89.1119 169.64C91.4981 167.062 94.3478 165.014 97.4937 163.615C100.64 162.217 104.018 161.497 107.431 161.497C110.844 161.497 114.223 162.217 117.369 163.615C120.515 165.014 123.364 167.062 125.751 169.64C128.137 172.218 130.011 175.273 131.264 178.627C132.517 181.981 133.123 185.565 133.047 189.17V189.143Z" fill="black"/>
<path opacity="0.25" d="M236.769 256.056C232.539 270.316 195.836 303.59 195.836 303.59C195.836 303.59 183.648 254.087 187.826 239.759C190.072 233.199 194.628 227.808 200.545 224.71C206.462 221.613 213.283 221.049 219.584 223.135C225.885 225.222 231.181 229.797 234.366 235.908C237.551 242.019 238.38 249.193 236.679 255.934L236.769 256.056Z" fill="black"/>
<path opacity="0.25" d="M329.127 335.573C327.25 350.39 296.395 389.734 296.395 389.734C296.395 389.734 276.468 343.178 278.397 328.361C279.395 321.333 282.97 315.002 288.35 310.735C293.729 306.467 300.481 304.606 307.149 305.553C313.816 306.5 319.863 310.179 323.985 315.795C328.107 321.412 329.972 328.516 329.178 335.573H329.127Z" fill="black"/>
<path d="M328.265 438.992C328.265 438.992 316.695 312.444 247.427 245.137C218.385 216.889 198.201 179.948 190.989 138.879C187.603 119.414 185.916 99.6611 185.949 79.8698" stroke="#535461" stroke-width="2" stroke-miterlimit="10"/>
<path d="M142.56 37.1844C147.857 51.0506 186.952 81.1325 186.952 81.1325C186.952 81.1325 195.373 30.8149 190.089 16.9487C187.549 10.2852 182.607 4.96055 176.35 2.14619C170.094 -0.668167 163.035 -0.741726 156.728 1.94169C150.42 4.62511 145.379 9.84569 142.715 16.455C140.051 23.0643 139.982 30.5209 142.522 37.1844H142.56Z" fill="#1BD4C2"/>
<path d="M132.545 130.69C144.116 139.287 192.416 142.098 192.416 142.098C192.416 142.098 173.685 95.0262 162.114 86.4295C156.558 82.2873 149.672 80.6463 142.971 81.8676C136.27 83.0888 130.302 87.0722 126.381 92.9416C122.46 98.8109 120.906 106.085 122.063 113.164C123.219 120.244 126.989 126.548 132.545 130.69V130.69Z" fill="#1BD4C2"/>
<path d="M184.368 261.176C198.51 262.439 241.5 239.093 241.5 239.093C241.5 239.093 202.765 208.495 188.662 207.246C185.269 206.864 181.837 207.203 178.569 208.241C175.302 209.279 172.263 210.997 169.632 213.293C167.001 215.588 164.831 218.416 163.248 221.61C161.666 224.804 160.703 228.3 160.417 231.892C160.131 235.484 160.528 239.101 161.583 242.529C162.638 245.958 164.33 249.129 166.561 251.856C168.792 254.584 171.517 256.814 174.575 258.414C177.632 260.015 180.962 260.954 184.368 261.176Z" fill="#1BD4C2"/>
<path d="M244.586 350.593C258.29 354.342 304.43 339.022 304.43 339.022C304.43 339.022 271.146 301.946 257.454 298.198C250.919 296.525 244.023 297.634 238.254 301.285C232.485 304.936 228.306 310.836 226.619 317.713C224.932 324.589 225.871 331.891 229.235 338.042C232.599 344.194 238.117 348.702 244.598 350.593H244.586Z" fill="#1BD4C2"/>
<path d="M243.364 123.546C237.643 137.209 197.61 165.878 197.61 165.878C197.61 165.878 190.796 115.303 196.517 101.627C197.842 98.3178 199.777 95.3208 202.21 92.8102C204.642 90.2996 207.524 88.3258 210.686 87.0038C213.848 85.6818 217.228 85.0381 220.628 85.1102C224.029 85.1822 227.381 85.9686 230.491 87.4236C233.6 88.8785 236.404 90.9728 238.74 93.5845C241.075 96.1961 242.895 99.2727 244.093 102.635C245.292 105.997 245.844 109.578 245.719 113.168C245.594 116.758 244.793 120.286 243.364 123.546V123.546Z" fill="#1BD4C2"/>
<path d="M312.529 229.044C303.196 240.275 256.876 254.983 256.876 254.983C256.876 254.983 264.692 204.571 274.039 193.339C276.258 190.669 278.953 188.487 281.971 186.918C284.988 185.348 288.269 184.422 291.625 184.192C294.981 183.962 298.348 184.432 301.532 185.576C304.716 186.721 307.656 188.516 310.183 190.861C312.711 193.205 314.776 196.052 316.262 199.24C317.747 202.428 318.624 205.893 318.842 209.439C319.06 212.984 318.615 216.541 317.532 219.904C316.448 223.268 314.749 226.374 312.529 229.044V229.044Z" fill="#1BD4C2"/>
<path d="M366.525 341.345C359.12 354.084 315.821 376.845 315.821 376.845C315.821 376.845 315.461 325.754 322.866 313.015C326.422 306.892 332.135 302.511 338.748 300.838C345.362 299.165 352.333 300.335 358.13 304.092C363.926 307.849 368.072 313.884 369.656 320.87C371.24 327.857 370.132 335.221 366.576 341.345H366.525Z" fill="#1BD4C2"/>
<path opacity="0.1" d="M524.731 1156.69C603.919 1156.69 668.114 1147.86 668.114 1136.97C668.114 1126.08 603.919 1117.25 524.731 1117.25C445.542 1117.25 381.348 1126.08 381.348 1136.97C381.348 1147.86 445.542 1156.69 524.731 1156.69Z" fill="#1BD4C2"/>
<path opacity="0.1" d="M235.111 1143.33C259.166 1143.33 278.667 1139.8 278.667 1135.45C278.667 1131.1 259.166 1127.58 235.111 1127.58C211.055 1127.58 191.554 1131.1 191.554 1135.45C191.554 1139.8 211.055 1143.33 235.111 1143.33Z" fill="#1BD4C2"/>
<path d="M244.573 1047.75C244.573 1047.75 251.631 1057.51 241.307 1072.19C230.984 1086.87 222.473 1099.35 225.88 1108.55C225.88 1108.55 241.449 1081.18 254.163 1080.8C266.878 1080.42 258.534 1064.21 244.573 1047.75Z" fill="#1BD4C2"/>
<path opacity="0.1" d="M244.573 1047.75C245.189 1048.69 245.674 1049.73 246.013 1050.82C258.38 1066.16 264.975 1080.49 253.083 1080.84C242.014 1081.18 228.721 1102.1 225.546 1107.38C225.651 1107.79 225.775 1108.19 225.919 1108.59C225.919 1108.59 241.487 1081.22 254.202 1080.84C266.916 1080.46 258.534 1064.21 244.573 1047.75Z" fill="black"/>
<path d="M257.699 1060.19C257.699 1063.62 257.339 1066.41 256.889 1066.41C256.439 1066.41 256.066 1063.69 256.066 1060.19C256.066 1056.68 256.529 1058.37 256.979 1058.37C257.429 1058.37 257.699 1056.75 257.699 1060.19Z" fill="#FFD037"/>
<path d="M262.211 1064.29C259.357 1065.93 256.863 1066.92 256.644 1066.5C256.426 1066.08 258.573 1064.41 261.427 1062.77C264.281 1061.12 263.15 1062.32 263.368 1062.77C263.587 1063.22 265.065 1062.64 262.211 1064.29Z" fill="#FFD037"/>
<path d="M207.264 1047.75C207.264 1047.75 200.207 1057.51 210.53 1072.19C220.853 1086.87 229.364 1099.35 225.957 1108.55C225.957 1108.55 210.389 1081.18 197.674 1080.8C184.959 1080.42 193.329 1064.21 207.264 1047.75Z" fill="#1BD4C2"/>
<path opacity="0.1" d="M207.264 1047.75C206.648 1048.69 206.163 1049.73 205.825 1050.82C193.457 1066.16 186.862 1080.49 198.754 1080.84C209.836 1081.18 223.116 1102.1 226.291 1107.38C226.192 1107.79 226.068 1108.2 225.919 1108.59C225.919 1108.59 210.35 1081.22 197.635 1080.84C184.921 1080.46 193.329 1064.21 207.264 1047.75Z" fill="black"/>
<path d="M194.139 1060.19C194.139 1063.62 194.499 1066.41 194.948 1066.41C195.398 1066.41 195.771 1063.69 195.771 1060.19C195.771 1056.68 195.308 1058.37 194.858 1058.37C194.409 1058.37 194.139 1056.75 194.139 1060.19Z" fill="#FFD037"/>
<path d="M189.639 1064.29C192.493 1065.93 194.974 1066.92 195.193 1066.5C195.411 1066.08 193.264 1064.41 190.41 1062.77C187.556 1061.12 188.688 1062.32 188.469 1062.77C188.25 1063.22 186.785 1062.64 189.639 1064.29Z" fill="#FFD037"/>
<path d="M196.388 1107.31C196.388 1107.31 216.135 1106.66 222.1 1102.19C228.065 1097.72 252.466 1092.36 253.945 1099.54C255.423 1106.73 283.616 1135.25 261.324 1135.44C239.032 1135.63 209.527 1131.77 203.588 1127.96C197.648 1124.14 196.388 1107.31 196.388 1107.31Z" fill="#A8A8A8"/>
<path opacity="0.2" d="M261.71 1132.94C239.417 1133.13 209.913 1129.27 203.973 1125.46C199.448 1122.54 197.648 1112.09 197.044 1107.29H196.388C196.388 1107.29 197.674 1124.1 203.575 1127.93C209.476 1131.76 239.019 1135.6 261.311 1135.41C267.739 1135.41 269.976 1132.94 269.848 1129.35C268.96 1131.55 266.505 1132.9 261.71 1132.94Z" fill="black"/>
<path d="M855.824 1106.51C855.824 1106.51 801.469 1103.05 807.884 1143.29C807.884 1143.29 806.598 1150.39 812.705 1153.62C812.705 1153.62 812.808 1150.65 818.285 1151.65C820.233 1152 822.214 1152.1 824.186 1151.95C826.856 1151.77 829.394 1150.66 831.411 1148.8V1148.8C831.411 1148.8 846.684 1142.15 852.623 1115.76C852.623 1115.76 857.02 1110 856.853 1108.52L847.674 1112.6C847.674 1112.6 850.81 1119.59 848.342 1125.4C848.342 1125.4 848.046 1112.85 846.285 1113.18C845.925 1113.18 841.515 1115.6 841.515 1115.6C841.515 1115.6 846.915 1127.82 842.801 1136.62C842.801 1136.62 844.344 1121.68 839.793 1116.48L833.365 1120.46C833.365 1120.46 839.664 1133.04 835.396 1143.3C835.396 1143.3 836.489 1127.56 832.015 1121.42L826.165 1126.24C826.165 1126.24 832.079 1138.64 828.467 1147.16C828.467 1147.16 828.004 1128.84 824.893 1127.45C824.893 1127.45 819.75 1132.22 818.992 1134.24C818.992 1134.24 823.041 1143.23 820.534 1147.99C820.534 1147.99 818.992 1135.77 817.719 1135.77C817.719 1135.77 812.577 1143.91 812.088 1149.35C812.088 1149.35 812.319 1141.1 816.485 1134.94C813.544 1135.53 810.832 1137.02 808.681 1139.21C808.681 1139.21 809.478 1133.5 817.68 1132.99C817.68 1132.99 821.897 1126.86 823.029 1126.49C823.029 1126.49 814.801 1125.76 809.813 1128.09C809.813 1128.09 814.196 1122.66 824.533 1125.14L830.305 1120.17C830.305 1120.17 819.48 1118.6 814.878 1120.34C814.878 1120.34 820.174 1115.56 831.861 1118.98L838.16 1115.01C838.16 1115.01 828.917 1112.91 823.414 1113.66C823.414 1113.66 829.225 1110.34 839.998 1113.93L844.498 1111.79C844.498 1111.79 837.723 1110.44 835.743 1110.18C833.763 1109.92 833.66 1109.38 833.66 1109.38C837.948 1108.62 842.35 1109.14 846.375 1110.87C846.375 1110.87 855.991 1107.15 855.824 1106.51Z" fill="#1BD4C2"/>
<path opacity="0.1" d="M818.388 1164C839.631 1164 856.853 1160.92 856.853 1157.13C856.853 1153.33 839.631 1150.26 818.388 1150.26C797.144 1150.26 779.922 1153.33 779.922 1157.13C779.922 1160.92 797.144 1164 818.388 1164Z" fill="#1BD4C2"/>
<path d="M760.6 1108.66C760.6 1108.66 729.951 1106.7 733.602 1129.4C733.418 1130.55 733.582 1131.73 734.071 1132.78C734.561 1133.82 735.35 1134.68 736.328 1135.22C736.328 1135.22 736.328 1133.54 739.477 1134.11C740.573 1134.3 741.686 1134.36 742.794 1134.28C744.298 1134.17 745.727 1133.54 746.869 1132.51V1132.51C746.869 1132.51 755.483 1128.74 758.838 1113.87C758.838 1113.87 761.307 1110.63 761.217 1109.8L756.074 1112.12C756.074 1112.12 757.836 1116.07 756.447 1119.35C756.447 1119.35 756.28 1112.27 755.29 1112.43C755.085 1112.43 752.603 1113.79 752.603 1113.79C752.603 1113.79 755.637 1120.58 753.349 1125.65C753.349 1125.65 754.21 1117.19 751.652 1114.28L748.014 1116.53C748.014 1116.53 751.562 1123.62 749.158 1129.41C749.158 1129.41 749.775 1120.53 747.242 1117.08L743.951 1119.79C743.951 1119.79 747.281 1126.79 745.237 1131.58C745.237 1131.58 744.967 1121.25 743.218 1120.47C741.967 1121.59 740.848 1122.86 739.889 1124.26C739.889 1124.26 742.177 1129.34 740.763 1132.02C740.763 1132.02 739.889 1125.13 739.182 1125.1C739.182 1125.1 736.302 1129.67 736.006 1132.79C736.137 1129.89 736.988 1127.08 738.475 1124.64C736.818 1124.97 735.29 1125.81 734.078 1127.05C734.078 1127.05 734.528 1123.81 739.22 1123.54C739.22 1123.54 741.586 1120.08 742.229 1119.88C742.229 1119.88 737.588 1119.45 734.772 1120.77C734.772 1120.77 737.253 1117.73 743.077 1119.11L746.33 1116.3C746.33 1116.3 740.223 1115.42 737.639 1116.4C737.639 1116.4 740.622 1113.68 747.217 1115.67L750.752 1113.44C748.027 1112.8 745.235 1112.54 742.447 1112.68C742.447 1112.68 745.725 1110.82 751.793 1112.83L754.365 1111.63C754.365 1111.63 750.508 1110.83 749.441 1110.71C748.374 1110.59 748.258 1110.26 748.258 1110.26C750.677 1109.83 753.16 1110.13 755.432 1111.1C755.432 1111.1 760.69 1109.02 760.6 1108.66Z" fill="#1BD4C2"/>
<path opacity="0.1" d="M739.49 1141.08C751.468 1141.08 761.178 1139.34 761.178 1137.2C761.178 1135.07 751.468 1133.33 739.49 1133.33C727.512 1133.33 717.802 1135.07 717.802 1137.2C717.802 1139.34 727.512 1141.08 739.49 1141.08Z" fill="#1BD4C2"/>
<path d="M818.927 1060.57C818.927 1060.57 781.941 1058.2 786.299 1085.6C786.075 1086.99 786.273 1088.41 786.864 1089.68C787.455 1090.94 788.409 1091.98 789.59 1092.63C789.59 1092.63 789.59 1090.61 793.383 1091.27C794.708 1091.5 796.054 1091.57 797.394 1091.48C799.211 1091.34 800.937 1090.59 802.317 1089.33V1089.33C802.317 1089.33 812.718 1084.8 816.755 1066.83C816.755 1066.83 819.75 1062.92 819.634 1061.91L813.386 1064.72C813.386 1064.72 815.521 1069.49 813.849 1073.44C813.849 1073.44 813.644 1064.9 812.435 1065.1C812.204 1065.1 809.195 1066.75 809.195 1066.75C809.195 1066.75 812.872 1075.04 810.095 1081.06C810.095 1081.06 811.15 1070.85 808.051 1067.34L803.655 1070.06C803.655 1070.06 807.948 1078.62 805.043 1085.61C805.043 1085.61 805.789 1074.89 802.729 1070.67L798.744 1073.94C798.744 1073.94 802.78 1082.38 800.325 1088.18C800.325 1088.18 800.003 1075.71 797.882 1074.76C797.882 1074.76 794.398 1078.01 793.871 1079.34C793.871 1079.34 796.635 1085.46 794.912 1088.69C794.912 1088.69 793.871 1080.4 793.01 1080.35C793.01 1080.35 789.539 1085.79 789.153 1089.63C789.319 1086.14 790.347 1082.76 792.136 1079.82C790.136 1080.23 788.29 1081.24 786.826 1082.73C786.826 1082.73 787.366 1078.83 792.997 1078.49C792.997 1078.49 795.864 1074.32 796.635 1074.07C796.635 1074.07 791.03 1073.58 787.636 1075.17C787.636 1075.17 790.618 1071.49 797.664 1073.16L801.598 1069.77C801.598 1069.77 794.218 1068.7 791.094 1069.88C791.094 1069.88 794.694 1066.64 802.665 1069L806.946 1066.28C806.946 1066.28 800.659 1064.93 796.918 1065.37C796.918 1065.37 800.865 1063.12 808.205 1065.55L811.265 1064.11C811.265 1064.11 806.65 1063.15 805.3 1063C803.95 1062.85 803.886 1062.45 803.886 1062.45C806.804 1061.94 809.799 1062.29 812.538 1063.47C812.538 1063.47 819.056 1061 818.927 1060.57Z" fill="#1BD4C2"/>
<path opacity="0.1" d="M793.46 1099.69C807.923 1099.69 819.647 1097.6 819.647 1095.02C819.647 1092.44 807.923 1090.35 793.46 1090.35C778.997 1090.35 767.272 1092.44 767.272 1095.02C767.272 1097.6 778.997 1099.69 793.46 1099.69Z" fill="#1BD4C2"/>
<path d="M1398.86 794.04V129.753H175.806V755.932C191.426 769.703 210.209 781.287 229.801 790.808C239.452 795.507 249.308 799.803 259.37 803.696H1384.27L1398.86 794.04Z" fill="url(#paint0_linear)"/>
<path d="M1396.5 794.312V148.766H178.48V757.331C194.036 770.722 212.741 781.98 232.218 791.283C241.834 795.81 251.656 799.984 261.684 803.805H1381.93L1396.5 794.312Z" fill="white"/>
<path d="M1396.5 131.641H178.493V165.783H1396.5V131.641Z" fill="#5A5773"/>
<path d="M202.816 157.54C207.431 157.54 211.173 153.587 211.173 148.712C211.173 143.837 207.431 139.884 202.816 139.884C198.201 139.884 194.46 143.837 194.46 148.712C194.46 153.587 198.201 157.54 202.816 157.54Z" fill="white"/>
<path d="M225.314 157.54C229.929 157.54 233.671 153.587 233.671 148.712C233.671 143.837 229.929 139.884 225.314 139.884C220.699 139.884 216.958 143.837 216.958 148.712C216.958 153.587 220.699 157.54 225.314 157.54Z" fill="white"/>
<path d="M247.812 157.54C252.427 157.54 256.169 153.587 256.169 148.712C256.169 143.837 252.427 139.884 247.812 139.884C243.197 139.884 239.456 143.837 239.456 148.712C239.456 153.587 243.197 157.54 247.812 157.54Z" fill="white"/>
<path d="M690.946 240.818H489.749V374.374H690.946V240.818Z" fill="#1BD4C2"/>
<path opacity="0.2" d="M412.369 240.818H211.173V374.374H412.369V240.818Z" fill="#5A5773"/>
<path opacity="0.2" d="M969.523 240.818H768.326V374.374H969.523V240.818Z" fill="#5A5773"/>
<path opacity="0.2" d="M412.369 431.753H211.173V565.309H412.369V431.753Z" fill="#5A5773"/>
<path opacity="0.2" d="M690.946 431.753H489.749V565.309H690.946V431.753Z" fill="#5A5773"/>
<path opacity="0.2" d="M969.523 431.753H768.326V565.309H969.523V431.753Z" fill="#5A5773"/>
<path opacity="0.2" d="M412.369 622.675H211.173V756.231H412.369V622.675Z" fill="#5A5773"/>
<path opacity="0.2" d="M690.946 622.675H489.749V756.231H690.946V622.675Z" fill="#5A5773"/>
<path opacity="0.2" d="M969.523 622.675H768.326V756.231H969.523V622.675Z" fill="#5A5773"/>
<path d="M641.643 357.805L627.759 362.993L622.719 354.165C618.862 347.375 613.514 338.085 609.567 331.336C602.6 319.466 611.714 301.376 611.714 301.376C611.714 301.376 613.36 283.218 619.222 277.623C625.085 272.027 626.717 301.376 626.717 301.376C650.257 312.675 637.645 339.253 637.645 339.253L639.933 349.792L641.643 357.805Z" fill="#EFB7B9"/>
<path opacity="0.1" d="M641.643 357.805L627.759 362.993L622.719 354.165V353.391C622.719 353.391 630.677 347.619 639.959 349.792L641.643 357.805Z" fill="black"/>
<path d="M619.222 417.29L626.177 411.07L622.693 355.089C622.693 355.089 640.692 342.078 654.011 362.436C654.011 362.436 653.471 374.876 654.011 378.271C654.551 381.667 650.27 385.062 654.011 388.444C657.752 391.825 654.011 403.152 654.011 403.152C654.011 403.152 658.24 411.07 660.914 413.324C663.588 415.578 666.275 434.252 660.914 438.204C655.553 442.156 645.5 451.215 645.5 455.167C645.5 459.119 632.644 468.748 632.644 468.748L621.356 452.981L619.222 417.29Z" fill="#FF6484"/>
<path d="M468.807 757.113C442.864 745.488 448.623 717.09 453.508 702.789C454.485 699.892 455.631 697.062 456.941 694.315L471.494 684.985C471.494 684.985 474.464 692.984 477.639 703.713C485.006 728.675 493.478 768.182 468.807 757.113Z" fill="#EFB7B9"/>
<path d="M504.47 1016.23C502.713 1019.84 501.416 1023.69 500.613 1027.66C499.329 1034.05 498.768 1040.59 498.942 1047.12C499.044 1051.64 499.404 1054.6 499.404 1054.6L470.504 1075.6C470.504 1075.6 470.671 1073.14 470.954 1069.53C471.7 1059.92 473.255 1042.07 474.721 1039.76C475.736 1038.16 476.444 1031.72 476.893 1025.75C477.343 1019.77 477.523 1014.53 477.523 1014.53C477.523 1014.53 512.299 1000.76 504.47 1016.23Z" fill="#EFB7B9"/>
<path d="M572.722 1031.29C572.722 1031.29 572.722 1037.13 572.516 1043.92C572.311 1050.71 571.925 1058.72 571.115 1062.45C570.37 1065.88 570.318 1072.17 570.459 1077.96C570.652 1084.75 571.115 1090.87 571.115 1090.87C571.115 1090.87 541.611 1061.4 544.619 1059.06C545.429 1058.43 546.226 1055.92 546.959 1052.58C547.859 1048.51 548.669 1043.07 549.273 1038.46C549.993 1032.96 550.443 1028.53 550.443 1028.53L572.722 1031.29Z" fill="#EFB7B9"/>
<path opacity="0.1" d="M504.47 1016.23C502.713 1019.84 501.416 1023.69 500.613 1027.66C492.702 1027.44 484.807 1026.8 476.958 1025.75C477.395 1019.91 477.588 1014.53 477.588 1014.53C477.588 1014.53 512.299 1000.76 504.47 1016.23Z" fill="black"/>
<path opacity="0.1" d="M572.722 1031.29C572.722 1031.29 572.722 1037.13 572.516 1043.92C563.312 1046.4 553.85 1041.43 549.273 1038.48C549.993 1032.98 550.443 1028.56 550.443 1028.56L572.722 1031.29Z" fill="black"/>
<path d="M633.133 742.419C621.356 769.581 616.535 801.795 616.535 801.795L612.254 828.957C612.254 828.957 614.401 840.827 612.254 845.349C610.107 849.872 605.826 857.232 605.826 857.232C605.826 857.232 609.04 884.938 605.826 887.763C602.612 890.587 605.826 907.55 605.826 907.55L595.117 964.59L580.127 1038.09C565.677 1050.54 546.445 1034.71 546.445 1034.71L550.687 986.646C550.687 986.646 557.115 902.444 554.441 898.994C551.767 895.544 555.508 884.856 555.508 884.856C555.508 884.856 559.262 874.671 556.588 870.718C553.914 866.766 557.115 858.278 557.115 858.278C557.115 858.278 556.048 823.782 559.262 815.865C562.476 807.947 559.262 758.974 559.262 758.974L557.976 743.722L557.231 735.275L557.166 734.447C557.166 734.447 556.678 737.828 555.881 743.071C553.515 759.028 548.476 792.098 546.483 798.902C545.128 803.805 543.288 808.544 540.994 813.04C540.994 813.04 543.77 830.003 540.994 834.525C538.217 839.048 540.569 844.14 540.569 844.14C540.569 844.14 543.243 858.278 535.208 863.928C527.173 869.578 535.208 872.416 535.208 872.416C535.208 872.416 529.32 885.997 527.186 891.633C525.052 897.269 527.186 905.214 527.186 905.214L522.905 951.009C522.905 951.009 519.151 970.226 519.691 983.237C520.231 996.248 514.87 1026.21 514.87 1026.21C514.87 1026.21 473.654 1026.21 467.303 1021.11C460.952 1016.02 477.909 966.342 477.909 966.342C477.909 966.342 482.73 879.261 481.65 877.006C480.57 874.752 481.65 857.776 485.404 854.394C489.158 851.012 485.404 844.208 485.404 844.208C485.404 844.208 484.337 830.627 485.404 827.246C486.471 823.864 485.237 812.537 485.237 812.537C485.237 812.537 481.65 784.832 481.123 768.997C480.596 753.161 477.909 717.552 477.909 717.552C477.909 717.552 480.712 695.523 481.136 685.039C481.29 681.182 482.923 676.361 484.993 671.825C487.309 666.703 489.973 661.765 492.964 657.049C492.964 657.049 619.788 617.446 625.11 621.385C626.525 622.431 628.582 629.533 630.613 639.814C636.269 668.538 641.798 722.455 633.133 742.419Z" fill="#444053"/>
<path d="M554.994 396.823C575.392 396.823 591.929 379.354 591.929 357.805C591.929 336.256 575.392 318.787 554.994 318.787C534.595 318.787 518.058 336.256 518.058 357.805C518.058 379.354 534.595 396.823 554.994 396.823Z" fill="#A1616A"/>
<path opacity="0.1" d="M630.613 639.841C626.357 642.15 623.503 643.739 623.503 643.739C623.503 643.739 563.556 673.712 546.509 672.015C533.318 670.657 499.649 671.431 484.98 671.811C487.297 666.689 489.96 661.751 492.951 657.035C492.951 657.035 619.788 617.446 625.11 621.385C626.525 622.458 628.581 629.533 630.613 639.841Z" fill="black"/>
<path d="M529.295 420.114C529.295 420.114 495.085 425.819 487.011 431.414C478.938 437.009 462.945 447.82 462.945 471.002C462.945 494.185 459.204 517.938 457.057 524.715C454.91 531.492 490.778 586.346 490.778 586.346L477.922 669.475C477.922 669.475 529.346 667.778 546.47 669.475C563.594 671.173 623.516 641.2 623.516 641.2C623.516 641.2 658.845 621.412 666.34 620.828C673.835 620.244 651.349 577.287 651.349 577.287C651.349 577.287 616.548 507.753 622.436 496.44C628.324 485.127 632.644 468.734 632.644 468.734L626.216 411.07C626.216 411.07 616.587 407.674 608.552 413.894C600.517 420.115 573.224 416.719 573.224 416.719L529.295 420.114Z" fill="#FF6484"/>
<path opacity="0.1" d="M471.224 520.763L457.802 524.715L454.087 577.926C454.087 577.926 458.908 592.064 454.087 596.586C449.266 601.108 448.199 697.805 448.199 697.805C448.199 697.805 463.729 709.675 481.92 700.63C481.92 700.63 479.246 689.887 487.281 650.869C495.316 611.851 495.303 592.064 495.303 592.064C495.303 592.064 495.303 543.43 499.057 535.512C502.811 527.595 499.057 507.807 499.057 507.807C499.057 507.807 491.562 497.064 492.089 493.112C492.616 489.16 471.224 520.763 471.224 520.763Z" fill="black"/>
<path opacity="0.1" d="M477.639 703.754C469.757 706.557 461.178 706.229 453.508 702.83C454.485 699.933 455.631 697.102 456.941 694.356L471.494 685.025C471.494 685.025 474.515 693.025 477.639 703.754Z" fill="black"/>
<path d="M470.414 520.763L457.031 524.715L453.29 577.926C453.29 577.926 458.111 592.063 453.29 596.586C448.469 601.108 447.402 697.805 447.402 697.805C447.402 697.805 462.945 709.661 481.123 700.576C481.123 700.576 478.449 689.833 486.471 650.815C494.493 611.797 494.506 592.009 494.506 592.009C494.506 592.009 494.506 543.376 498.247 535.458C501.988 527.54 498.247 507.753 498.247 507.753C498.247 507.753 490.752 497.01 491.292 493.058C491.832 489.106 470.414 520.763 470.414 520.763Z" fill="#FF6484"/>
<path opacity="0.1" d="M607.446 529.238C607.446 529.238 600.491 592.566 580.14 604.449C580.14 604.449 625.638 590.882 607.446 529.238Z" fill="black"/>
<path opacity="0.1" d="M505.215 534.901C505.215 534.901 530.362 547.898 524.499 556.943C518.637 565.988 505.215 534.901 505.215 534.901Z" fill="black"/>
<path opacity="0.1" d="M505.215 560.909C505.215 560.909 521.272 578.442 518.071 584.662C514.87 590.882 505.215 560.909 505.215 560.909Z" fill="black"/>
<path opacity="0.1" d="M634.74 415.592C634.74 415.592 641.039 426.891 641.643 434.252C642.247 441.613 634.74 415.592 634.74 415.592Z" fill="black"/>
<path opacity="0.1" d="M634.74 400.327C634.74 400.327 637.902 397.489 645.976 400.327C654.049 403.166 634.74 400.327 634.74 400.327Z" fill="black"/>
<path opacity="0.1" d="M603.834 730.821C590.571 732.808 577.047 730.978 564.687 725.524L557.938 743.777L557.192 735.329C558.298 728.24 560.445 720.648 564.687 718.733C564.687 718.733 579.549 731.242 603.834 730.821Z" fill="black"/>
<path opacity="0.1" d="M494.031 754.574C494.031 754.574 526.955 761.785 536.185 760.509L494.031 754.574Z" fill="black"/>
<path opacity="0.1" d="M497.45 763.687C497.45 763.687 511.502 763.048 518.521 766.022L497.45 763.687Z" fill="black"/>
<path opacity="0.1" d="M499.057 769.839C505.468 771.278 511.976 772.186 518.521 772.555L499.057 769.839Z" fill="black"/>
<path opacity="0.1" d="M498.247 847.658C498.852 847.237 526.351 840.446 529.77 845.322L498.247 847.658Z" fill="black"/>
<path opacity="0.1" d="M498.247 856.567C498.247 856.567 522.134 853.593 522.738 856.567C523.342 859.541 498.247 856.567 498.247 856.567Z" fill="black"/>
<path opacity="0.1" d="M498.247 864.62C498.247 864.62 523.741 859.052 526.749 860.41C529.757 861.768 498.247 864.62 498.247 864.62Z" fill="black"/>
<path opacity="0.1" d="M499.456 1054.62L470.555 1075.61C470.555 1075.61 470.723 1073.16 471.005 1069.54C477.433 1052.84 485.803 1044.03 485.803 1044.03C492.321 1042.23 496.435 1043.89 498.993 1047.14C499.096 1051.64 499.456 1054.62 499.456 1054.62Z" fill="black"/>
<path d="M502.271 1073.48C498.187 1083.33 496.132 1093.97 496.242 1104.72C496.404 1113.53 494.289 1122.22 490.122 1129.86C489.519 1130.93 488.84 1131.96 488.091 1132.93C488.091 1132.93 468.01 1132.75 460.978 1126.6C460.188 1125.94 459.543 1125.1 459.088 1124.15C455.064 1115.68 466.917 1083.23 466.917 1083.23C473.139 1058.22 485.777 1044.85 485.777 1044.85C508.288 1038.7 502.271 1073.48 502.271 1073.48Z" fill="#444053"/>
<path opacity="0.1" d="M490.122 1129.79C489.52 1130.87 488.84 1131.89 488.091 1132.86C488.091 1132.86 468.01 1132.68 460.978 1126.53C464.436 1114.44 475.466 1077.87 480.635 1084.09C485.494 1089.93 488.875 1118.03 490.122 1129.79Z" fill="black"/>
<path d="M487.371 1086.36L485.97 1141.14H492.706C492.706 1141.14 493.799 1093.08 496.807 1086.36C499.816 1079.63 487.371 1086.36 487.371 1086.36Z" fill="#444053"/>
<path opacity="0.1" d="M571.115 1090.87C571.115 1090.87 541.611 1061.4 544.619 1059.06C545.429 1058.43 546.226 1055.92 546.959 1052.58C552.628 1051.54 562.386 1054.03 570.46 1077.96C570.652 1084.75 571.115 1090.87 571.115 1090.87Z" fill="black"/>
<path d="M575.525 1123.73C575.298 1123.84 575.061 1123.91 574.818 1123.95C571.347 1124.59 558.555 1124.22 551.394 1123.95C550.082 1123.9 548.838 1123.32 547.924 1122.33C547.011 1121.33 546.499 1120 546.496 1118.61C546.496 1116.58 546.496 1114.09 546.342 1111.44C546.007 1103.08 545.056 1093.12 542.215 1090.88C537.188 1086.81 533.216 1072.98 542.215 1055.47C542.215 1055.47 559.468 1041.55 571.912 1083.4C571.912 1083.4 573.121 1095.33 578.533 1099.57C583.945 1103.81 577.942 1122.52 575.525 1123.73Z" fill="#444053"/>
<path opacity="0.1" d="M574.792 1123.95C571.321 1124.59 558.529 1124.22 551.368 1123.95C550.056 1123.9 548.812 1123.32 547.899 1122.33C546.985 1121.33 546.473 1120 546.47 1118.61C546.47 1116.58 546.47 1114.09 546.316 1111.44C548.489 1101.31 551.613 1090.88 555.637 1088.5C555.662 1088.49 567.837 1087.04 574.792 1123.95Z" fill="black"/>
<path d="M544.4 1087.27L547.64 1132.86H551.754V1083.38L544.4 1087.27Z" fill="#444053"/>
<path opacity="0.1" d="M554.454 295.631C542.792 296.548 531.503 300.379 521.517 306.808C518.945 308.452 516.374 310.448 515.307 313.395C514.382 315.948 514.767 318.827 514.806 321.544C515.153 344.93 490.469 362.626 491.241 385.999C491.549 395.275 495.959 403.912 496.769 413.161C498.119 428.589 489.48 442.781 481.2 455.561C489.73 456.109 498.132 453.167 504.662 447.344C513.399 478.106 514.527 510.719 507.941 542.072H519.781C520.95 541.982 522.125 542.134 523.239 542.52C524.278 543.041 525.209 543.775 525.978 544.679C537.047 556.318 544.465 573.525 540.235 589.415L565.433 579.433C571.462 577.043 577.582 574.612 582.827 570.673C588.072 566.735 592.469 561.017 593.575 554.308C594.256 550.234 594.037 545.372 597.213 543.009C598.777 542.13 600.446 541.477 602.175 541.067C609.092 538.486 612.151 530.039 613.566 522.434C615.288 513.103 615.828 503.572 615.173 494.09C614.054 478.2 609.606 462.066 613.27 446.557C615.34 437.851 619.942 429.743 620.315 420.753C620.919 405.936 609.953 393.17 608.32 378.434C607.176 368.167 610.686 357.778 609.542 347.511C608.906 342.211 607.071 337.152 604.191 332.761C601.31 328.371 597.47 324.779 592.996 322.291C589.898 320.607 586.568 319.479 583.508 317.619C576.527 313.341 572.066 305.64 565.728 300.344C559.39 295.047 548.836 293.051 544.066 299.936L554.454 295.631Z" fill="black"/>
<path d="M554.454 293.933C542.792 294.851 531.503 298.681 521.517 305.111C518.945 306.754 516.374 308.75 515.307 311.697C514.382 314.251 514.767 317.13 514.806 319.846C515.153 343.232 490.469 360.929 491.241 384.315C491.549 393.577 495.959 402.215 496.769 411.477C498.119 426.905 489.48 441.097 481.2 453.89C489.728 454.419 498.123 451.479 504.662 445.674C513.397 476.426 514.526 509.03 507.941 540.374H519.781C520.951 540.289 522.126 540.445 523.239 540.836C524.281 541.347 525.212 542.078 525.978 542.982C537.047 554.634 544.465 571.828 540.235 587.718L565.433 577.735C571.462 575.345 577.582 572.914 582.827 568.976C588.072 565.037 592.469 559.32 593.575 552.611C594.256 548.536 594.037 543.674 597.213 541.311C598.777 540.432 600.446 539.779 602.175 539.369C609.092 536.789 612.151 528.341 613.566 520.736C615.303 511.398 615.856 501.858 615.211 492.365C614.093 476.476 609.645 460.341 613.309 444.832C615.378 436.126 619.981 428.019 620.354 419.028C620.958 404.211 609.992 391.445 608.359 376.71C607.215 366.442 610.724 356.067 609.58 345.786C608.943 340.487 607.107 335.429 604.226 331.039C601.346 326.649 597.507 323.056 593.035 320.566C589.936 318.882 586.607 317.755 583.547 315.908C576.566 311.616 572.105 303.916 565.767 298.619C559.429 293.322 548.874 291.326 544.105 298.211L554.454 293.933Z" fill="#925978"/>
<g opacity="0.1">
<path opacity="0.1" d="M514.78 314.196C514.728 314.72 514.703 315.246 514.703 315.772C514.742 315.256 514.767 314.726 514.78 314.196Z" fill="black"/>
<path opacity="0.1" d="M608.218 368.561C608.68 361.363 610.197 354.138 609.632 346.967C609.207 354.165 607.69 361.39 608.218 368.561Z" fill="black"/>
<path opacity="0.1" d="M496.769 404.347C496.023 395.927 492.308 388.05 491.434 379.643C491.259 381.184 491.195 382.737 491.241 384.288C491.549 393.455 495.856 402.025 496.73 411.151C496.943 408.889 496.956 406.611 496.769 404.347Z" fill="black"/>
<path opacity="0.1" d="M613.36 437.797C612.156 443.323 611.723 449.006 612.074 454.665C612.203 451.364 612.633 448.085 613.36 444.873C615.43 436.167 620.032 428.059 620.405 419.069C620.466 417.472 620.397 415.873 620.199 414.288C619.197 422.369 615.198 429.893 613.36 437.797Z" fill="black"/>
<path opacity="0.1" d="M504.662 438.53C499.3 443.277 492.664 446.127 485.687 446.679C484.221 449.096 482.704 451.459 481.2 453.795C489.728 454.324 498.123 451.384 504.662 445.579C509.359 462.088 511.877 479.203 512.145 496.44C512.526 476.842 510.001 457.303 504.662 438.53V438.53Z" fill="black"/>
<path opacity="0.1" d="M613.604 513.62C612.19 521.225 609.13 529.672 602.214 532.239C600.482 532.647 598.813 533.305 597.251 534.195C594.076 536.558 594.295 541.447 593.613 545.494C592.508 552.203 588.124 557.907 582.866 561.791C577.607 565.676 571.501 568.175 565.471 570.565L541.431 580.071C541.306 582.621 540.918 585.148 540.274 587.609L565.471 577.627C571.501 575.237 577.62 572.806 582.866 568.867C588.111 564.929 592.508 559.211 593.613 552.502C594.295 548.428 594.076 543.566 597.251 541.203C598.816 540.324 600.485 539.67 602.214 539.261C609.13 536.68 612.19 528.233 613.604 520.627C615.068 512.713 615.676 504.649 615.417 496.589C615.247 502.308 614.641 508.004 613.604 513.62V513.62Z" fill="black"/>
<path opacity="0.1" d="M526.016 535.825C525.251 534.916 524.32 534.182 523.278 533.665C522.164 533.28 520.99 533.123 519.82 533.204H509.316C508.905 535.567 508.468 537.93 508.031 540.279H519.871C521.041 540.194 522.216 540.35 523.329 540.741C524.371 541.253 525.302 541.983 526.068 542.887C534.167 551.416 540.299 562.905 541.353 574.693C542.652 560.596 535.735 546.092 526.016 535.825Z" fill="black"/>
</g>
<path opacity="0.1" d="M467.277 582.109C467.277 582.109 476.842 577.871 478.976 582.109C481.11 586.346 467.277 582.109 467.277 582.109Z" fill="black"/>
<path opacity="0.1" d="M470.658 589.374C470.658 589.374 480.223 585.137 482.37 589.374C484.517 593.612 470.658 589.374 470.658 589.374Z" fill="black"/>
<path opacity="0.1" d="M1063.46 41.0418C1063.46 41.0418 1014.54 37.9317 1020.32 74.1387C1020.32 74.1387 1019.17 80.5353 1024.66 83.4416C1024.66 83.4416 1024.75 80.7254 1029.68 81.6625C1031.43 81.9743 1033.21 82.0654 1034.99 81.9341C1037.38 81.759 1039.66 80.7623 1041.46 79.0957V79.0957C1041.46 79.0957 1055.21 73.1065 1060.56 49.3669C1060.56 49.3669 1064.52 44.179 1064.41 42.848L1056.16 46.5828C1056.16 46.5828 1058.97 52.8708 1056.75 58.0995C1056.75 58.0995 1056.49 46.8001 1054.9 47.0717C1054.58 47.0717 1050.62 49.2447 1050.62 49.2447C1050.62 49.2447 1055.46 60.2046 1051.8 68.1766C1051.8 68.1766 1053.19 54.6771 1049.1 50.046L1043.26 53.6992C1043.26 53.6992 1048.93 65.0122 1045.09 74.2473C1045.09 74.2473 1046.08 60.0823 1042.04 54.5684L1036.77 58.9008C1036.77 58.9008 1042.11 69.9964 1038.89 77.6561C1038.89 77.6561 1038.47 61.1552 1035.67 59.9193C1035.67 59.9193 1031.06 64.2109 1030.37 65.9765C1030.37 65.9765 1034.01 74.1251 1031.75 78.3352C1031.75 78.3352 1030.36 67.3617 1029.17 67.3074C1029.17 67.3074 1024.58 74.5868 1024.11 79.5303C1024.33 74.9175 1025.69 70.4464 1028.06 66.5605C1025.41 67.0899 1022.97 68.4314 1021.04 70.4175C1021.04 70.4175 1021.74 65.2703 1029.19 64.8085C1029.19 64.8085 1032.98 59.2946 1034 58.9551C1034 58.9551 1026.59 58.3032 1022.1 60.4083C1022.1 60.4083 1026.05 55.5463 1035.36 57.6921L1040.5 53.2103C1040.5 53.2103 1030.76 51.8522 1026.62 53.3597C1026.62 53.3597 1031.37 49.0681 1041.9 52.1918L1047.56 48.62C1047.56 48.62 1039.25 46.7186 1034.3 47.4112C1034.3 47.4112 1039.52 44.437 1049.22 47.6557L1053.27 45.7408C1053.27 45.7408 1047.17 44.4778 1045.4 44.274C1043.62 44.0703 1043.52 43.5542 1043.52 43.5542C1047.38 42.8764 1051.33 43.3467 1054.95 44.9123C1054.95 44.9123 1063.6 41.6122 1063.46 41.0418Z" fill="#1BD4C2"/>
<path opacity="0.1" d="M993.743 11.6797C993.743 11.6797 952.604 39.8059 977.558 65.3517C977.558 65.3517 980.219 71.2187 986.274 70.1323C986.274 70.1323 984.834 67.905 989.321 65.5555C990.911 64.7094 992.401 63.6653 993.756 62.4454C995.588 60.8043 996.865 58.5782 997.394 56.1031V56.1031C997.394 56.1031 1005.11 42.6579 996.109 20.1949C996.109 20.1949 996.392 13.5403 995.517 12.5624L990.966 20.711C990.966 20.711 996.765 24.0112 997.909 29.6066C997.909 29.6066 991.365 20.6839 990.195 21.8926C989.964 22.137 987.958 26.3335 987.958 26.3335C987.958 26.3335 998.024 32.1191 999.529 40.8245C999.529 40.8245 993.101 29.0769 987.174 27.9225L984.5 34.4414C984.5 34.4414 995.427 40.0096 997.51 49.8558C997.51 49.8558 990.349 37.8231 984.011 35.9082L982.211 42.6986C982.211 42.6986 992.753 48.3483 994.438 56.5513C994.438 56.5513 984.847 43.5407 981.89 44.3284C981.89 44.3284 980.604 50.6571 981.016 52.477C981.016 52.477 988.498 56.7142 989.064 61.5762C989.064 61.5762 981.787 53.6042 980.849 54.2697C980.849 54.2697 981.234 63.0022 983.639 67.321C981.235 63.4651 979.826 59.0131 979.55 54.4055C977.715 56.4887 976.499 59.0955 976.053 61.9022C976.053 61.9022 973.739 57.3118 979.486 52.2868C979.486 52.2868 979.486 45.4963 980.065 44.5592C980.065 44.5592 973.739 48.6335 971.297 53.1696C971.297 53.1696 971.76 46.7865 980.489 42.7394L982.16 35.881C982.16 35.881 973.521 40.8516 971.065 44.6951C971.065 44.6951 972.492 38.2577 982.713 34.1834L985.284 27.7596C985.284 27.7596 977.571 31.44 973.919 35.0933C973.919 35.0933 976.491 29.4164 986.081 25.9533L988.267 21.879C988.267 21.879 982.649 24.6767 981.106 25.6273C979.563 26.578 979.19 26.2249 979.19 26.2249C981.914 23.2644 985.364 21.1625 989.154 20.1542C989.154 20.1542 994.18 12.0599 993.743 11.6797Z" fill="#1BD4C2"/>
<path opacity="0.1" d="M931.135 44.4506C931.135 44.4506 906.541 89.2679 939.748 100.038C939.748 100.038 944.646 103.99 949.57 100.038C949.57 100.038 947.346 98.761 950.329 94.5102C951.365 92.993 952.228 91.3519 952.9 89.621C953.829 87.279 954.014 84.6818 953.427 82.2194V82.2194C953.427 82.2194 954.52 66.5469 936.843 50.8337C936.843 50.8337 934.271 44.7765 932.986 44.3284L932.433 53.8351C932.433 53.8351 939.015 53.998 942.448 58.439C942.448 58.439 932.78 53.6178 932.292 55.2339C932.189 55.5599 932.202 60.2589 932.202 60.2589C932.202 60.2589 943.759 60.6256 948.902 67.6605C948.902 67.6605 938.103 60.286 932.356 62.0787L932.767 69.168C932.767 69.168 944.891 68.8964 950.971 76.6783C950.971 76.6783 939.401 69.3853 932.973 70.7162L934.259 77.629C934.259 77.629 946.086 77.629 951.1 84.1207C951.1 84.1207 936.958 77.1129 934.657 79.1908C934.657 79.1908 936.213 85.4652 937.395 86.9184C937.395 86.9184 945.88 87.1085 948.477 91.1692C948.477 91.1692 938.565 87.5431 938.013 88.6024C938.013 88.6024 942.114 96.1942 946.112 98.8832C942.318 96.6114 939.15 93.3349 936.92 89.3765C936.18 92.1114 936.216 95.0153 937.023 97.7289C937.023 97.7289 932.986 94.7546 935.943 87.5159C935.943 87.5159 932.986 81.4588 933.153 80.3588C933.153 80.3588 929.296 87.0542 929.039 92.2286C929.039 92.2286 926.699 86.3208 932.742 78.5389L931.289 71.6126C931.289 71.6126 925.722 80.1822 925.182 84.7862C925.182 84.7862 923.691 78.3624 931.057 69.8471L930.569 62.9072C930.569 62.9072 925.247 69.9014 923.601 74.8856C923.601 74.8856 923.421 68.6112 930.505 60.9108L930.698 56.2253C930.698 56.2253 926.841 61.3997 925.928 63.0158C925.015 64.632 924.475 64.4011 924.475 64.4011C925.634 60.4541 927.805 56.9236 930.749 54.2018C930.749 54.2018 931.675 44.5728 931.135 44.4506Z" fill="#1BD4C2"/>
<path d="M1142.29 555.34C1138.66 555.34 1135.1 556.48 1132.07 558.616C1129.05 560.751 1126.69 563.786 1125.3 567.338C1123.91 570.889 1123.54 574.796 1124.25 578.566C1124.96 582.336 1126.71 585.799 1129.29 588.517C1131.86 591.235 1135.14 593.086 1138.71 593.836C1142.27 594.586 1145.97 594.201 1149.33 592.73C1152.7 591.259 1155.57 588.768 1157.59 585.572C1159.61 582.376 1160.69 578.619 1160.69 574.775C1160.68 569.625 1158.74 564.69 1155.29 561.049C1151.84 557.407 1147.17 555.355 1142.29 555.34V555.34ZM1088.51 402.839V422.274H1106.9L1140.02 493.14L1126.17 516.947C1124.66 519.763 1123.87 522.945 1123.87 526.182C1123.87 539.193 1132.29 545.616 1143.71 545.616H1251.27V526.929H1145.96C1145.65 526.949 1145.34 526.9 1145.06 526.784C1144.77 526.669 1144.51 526.491 1144.29 526.261C1144.07 526.031 1143.9 525.755 1143.79 525.451C1143.69 525.147 1143.64 524.822 1143.66 524.498C1143.9 523.657 1144.23 522.847 1144.63 522.081L1153.83 506.748H1222.36C1225.67 506.776 1228.93 505.839 1231.77 504.04C1234.61 502.24 1236.92 499.648 1238.46 496.548L1271.59 436.371C1272.23 434.843 1272.55 433.182 1272.51 431.509C1272.5 430.258 1272.25 429.023 1271.78 427.877C1271.3 426.73 1270.62 425.696 1269.76 424.835C1268.9 423.974 1267.89 423.303 1266.78 422.863C1265.67 422.423 1264.49 422.223 1263.31 422.274H1127.15L1118.41 402.839H1088.51ZM1232.87 555.34C1229.23 555.343 1225.67 556.485 1222.65 558.622C1219.62 560.759 1217.27 563.796 1215.88 567.347C1214.49 570.898 1214.12 574.806 1214.84 578.575C1215.55 582.344 1217.3 585.805 1219.87 588.522C1222.45 591.238 1225.73 593.088 1229.29 593.837C1232.86 594.586 1236.56 594.2 1239.92 592.729C1243.28 591.257 1246.15 588.766 1248.18 585.571C1250.2 582.375 1251.27 578.618 1251.27 574.775C1251.26 569.623 1249.32 564.686 1245.87 561.044C1242.42 557.402 1237.74 555.351 1232.87 555.34V555.34Z" fill="#1BD4C2"/>
<path d="M1209.33 456.607H1193.9V440.309H1182.33V456.607H1166.9V468.83H1182.33V485.127H1193.9V468.83H1209.33V456.607Z" fill="white"/>
</g>
<defs>
<linearGradient id="paint0_linear" x1="787.327" y1="803.696" x2="787.327" y2="129.753" gradientUnits="userSpaceOnUse">
<stop stop-color="#808080" stop-opacity="0.25"/>
<stop offset="0.54" stop-color="#808080" stop-opacity="0.12"/>
<stop offset="1" stop-color="#808080" stop-opacity="0.1"/>
</linearGradient>
<clipPath id="clip0">
<rect width="1435" height="1164" fill="white"/>
</clipPath>
</defs>
</svg>
