<svg width="21" height="21" viewBox="0 0 21 21" fill="none" xmlns="http://www.w3.org/2000/svg">
<path d="M9.68372 1.26104C9.9831 0.339779 11.2864 0.339779 11.5858 1.26104L13.3059 6.55414C13.4398 6.96614 13.8237 7.24508 14.2569 7.24508H19.8229C20.7917 7.24508 21.1944 8.48477 20.4107 9.05414L15.9079 12.3251C15.5574 12.5797 15.4107 13.0312 15.5446 13.4432L17.2646 18.7359C17.564 19.6572 16.5095 20.4234 15.7258 19.854L11.2225 16.5827C10.872 16.3281 10.3975 16.3281 10.047 16.5827L5.54374 19.854C4.76 20.4234 3.70558 19.6572 4.00497 18.7359L5.72492 13.4432C5.85882 13.0312 5.71214 12.5797 5.36161 12.3251L0.858866 9.05414C0.0750846 8.48477 0.477838 7.24508 1.4466 7.24508H7.01259C7.4458 7.24508 7.82975 6.96614 7.96364 6.55414L9.68372 1.26104Z" fill="url(#paint0_linear)"/>
<defs>
<linearGradient id="paint0_linear" x1="23.5322" y1="42.6817" x2="-2.2563" y2="-19.9323" gradientUnits="userSpaceOnUse">
<stop stop-color="#FF0B0B"/>
<stop offset="1" stop-color="#FFB800" stop-opacity="0"/>
</linearGradient>
</defs>
</svg>
