<svg width="21" height="20" viewBox="0 0 21 20" fill="none" xmlns="http://www.w3.org/2000/svg">
<path d="M9.68372 1.10527C9.9831 0.18401 11.2864 0.18401 11.5858 1.10527L13.3059 6.39837C13.4398 6.81037 13.8237 7.08931 14.2569 7.08931H19.8229C20.7917 7.08931 21.1944 8.329 20.4107 8.89837L15.9079 12.1693C15.5574 12.424 15.4107 12.8754 15.5446 13.2874L17.2646 18.5801C17.564 19.5014 16.5095 20.2676 15.7258 19.6983L11.2225 16.4269C10.872 16.1723 10.3975 16.1723 10.047 16.4269L5.54374 19.6983C4.76 20.2676 3.70558 19.5014 4.00497 18.5801L5.72492 13.2874C5.85882 12.8754 5.71214 12.424 5.36161 12.1693L0.858866 8.89837C0.0750846 8.329 0.477838 7.08931 1.4466 7.08931H7.01259C7.4458 7.08931 7.82975 6.81037 7.96364 6.39837L9.68372 1.10527Z" fill="#B6B6B6"/>
</svg>
